<?xml version="1.0" encoding="UTF-8" standalone="no"?>
<svg width="30px" height="30px" viewBox="0 0 30 30" version="1.1" xmlns="http://www.w3.org/2000/svg" xmlns:xlink="http://www.w3.org/1999/xlink" xmlns:sketch="http://www.bohemiancoding.com/sketch/ns">
    <!-- Generator: Sketch 3.3.3 (12081) - http://www.bohemiancoding.com/sketch -->
    <title>seznam</title>
    <desc>Created with Sketch.</desc>
    <defs></defs>
    <g id="Mobile" stroke="none" stroke-width="1" fill="none" fill-rule="evenodd" sketch:type="MSPage">
        <g id="[Secure]-M-Choose" sketch:type="MSArtboardGroup" transform="translate(-16.000000, -18.000000)">
            <g id="seznam" sketch:type="MSLayerGroup" transform="translate(16.000000, 18.000000)">
                <path d="M14.3434921,1.92769231 C13.5256614,2.06 12.7143519,2.21461538 11.9061111,2.39038462 C11.3713757,2.505 10.8370238,2.61192308 10.3088095,2.74615385 C9.82202381,2.87038462 9.32219577,2.98038462 8.845,3.13346154 C8.38353175,3.28038462 7.92858466,3.43192308 7.47670635,3.60730769 C6.59865079,3.95192308 5.76509259,4.44 5.04277778,5.04923077 C4.60048942,5.42423077 4.1869709,5.83115385 3.83981481,6.30153846 C3.59507937,6.63807692 3.39138889,6.98423077 3.19421958,7.35269231 C3.00970899,7.70192308 2.8823545,8.11538462 2.87890212,8.51576923 C2.87276455,9.69307692 3.61387566,10.6788462 4.46699735,11.4107692 C4.74702381,11.65 5.04584656,11.8703846 5.34812169,12.0807692 C6.24535714,12.7061538 7.22238095,13.255 8.21513228,13.7334615 C9.23972222,14.2246154 10.2704497,14.6969231 11.3142196,15.1465385 C12.3004497,15.5696154 13.3093122,15.9284615 14.327381,16.2696154 C14.6200661,16.3669231 14.9162037,16.4642308 15.2088889,16.5615385 C16.1314418,16.8711538 17.0735582,17.1569231 17.9899735,17.4915385 C18.5592328,17.6992308 19.1672354,17.8938462 19.7364947,18.1538462 C20.3283862,18.4234615 20.9425265,18.6926923 21.4646032,19.0803846 C21.8144444,19.3353846 22.1167196,19.6546154 22.3392063,20.0265385 C22.5590079,20.3930769 22.6955688,20.8130769 22.7051587,21.2419231 C22.7182011,21.6534615 22.6004365,22.0538462 22.3806349,22.4019231 C21.8079233,23.3042308 20.8121032,23.92 19.8511905,24.33 C18.4161508,24.9407692 16.9462037,25.4688462 15.4505556,25.9126923 C14.5978175,26.1646154 13.7450794,26.4146154 12.8862037,26.64 C12.0238757,26.8661538 11.1454365,27.1042308 10.2739021,27.3242308 C9.40505291,27.5446154 8.5362037,27.7434615 7.66466931,27.9334615 C7.16522487,28.0403846 6.66232804,28.1469231 6.16595238,28.2511538 C5.86674603,28.3115385 5.57406085,28.3753846 5.2752381,28.4407692 C4.65150794,28.5776923 4.02777778,28.7134615 3.40097884,28.8484615 C2.68825397,29.0069231 1.9751455,29.1611538 1.26280423,29.3180769 C1.05566138,29.3638462 0.848902116,29.4196154 0.642142857,29.4661538 C0.457632275,29.5088462 -0.232843915,29.6703846 0.279642857,29.6396154 C0.991984127,29.5996154 2.89501323,29.4323077 6.96153439,28.8838462 C8.43455026,28.6384615 9.9140873,28.4265385 11.3905556,28.1838462 C13.2295238,27.8811538 15.0562169,27.525 16.8694841,27.0915385 C17.3884921,26.9684615 17.903664,26.8361538 18.4192196,26.6942308 C18.7598545,26.5984615 19.097037,26.4996154 19.4311508,26.3942308 C20.8566005,25.9488462 23.1443783,25.1623077 23.6852513,24.925 C25.7536111,24.0123077 27.0421164,23.325 27.7137963,21.6884615 C27.9428042,21.1076923 28.0509788,20.4569231 27.9807804,19.8334615 C27.9109656,19.2623077 27.7199339,18.685 27.4241799,18.1919231 C27.1407011,17.7180769 26.7525,17.3130769 26.3485714,16.9396154 C25.594418,16.2473077 24.7482011,15.6876923 23.8444444,15.2138462 C23.590119,15.0796154 23.3288889,14.9519231 23.0649735,14.8307692 C22.7369974,14.6796154 22.4094048,14.5373077 22.0783598,14.3969231 C21.610754,14.2007692 21.1396958,14.03 20.6625,13.8657692 C19.4215608,13.4384615 18.1614418,13.0553846 16.9143651,12.6453846 C16.2077778,12.4126923 15.5080952,12.1607692 14.8268254,11.8703846 C14.5375926,11.7488462 14.251045,11.6180769 13.9710185,11.4811538 C13.6403571,11.32 13.3189021,11.1430769 13.0005159,10.9530769 C12.609246,10.7153846 11.9697884,10.3053846 12.1477778,9.74884615 C12.2720635,9.35153846 12.7013095,9.19692308 13.0515344,9.05461538 C13.3760582,8.92230769 13.7197619,8.82961538 14.0569444,8.74076923 C15.0880556,8.47423077 16.1410317,8.29423077 17.1813492,8.07038462 C17.4870767,8.005 17.7924206,7.93807692 18.0981481,7.86653846 C18.9094577,7.675 19.7460847,7.53115385 20.519418,7.22192308 C21.1845767,6.95884615 22.0369312,6.53769231 22.2855026,5.80384615 C22.6414815,4.73346154 22.2375529,3.57692308 21.6552513,2.67423077 C21.4454233,2.35038462 21.2290741,2.03307692 21.0062037,1.71538462 C20.7008598,1.28461538 20.3632937,0.879615385 20.0326323,0.469615385 C19.8830291,0.283076923 19.7015873,0.297307692 19.5489153,0.345 C19.3452249,0.415384615 18.7886243,1.07115385 14.3434921,1.92769231" id="Fill-2" fill="#C9232A" sketch:type="MSShapeGroup"></path>
            </g>
        </g>
    </g>
</svg>